<?xml version="1.0" encoding="utf-8"?>
<!-- Generator: Adobe Illustrator 17.0.0, SVG Export Plug-In . SVG Version: 6.00 Build 0)  -->
<!DOCTYPE svg PUBLIC "-//W3C//DTD SVG 1.1//EN" "http://www.w3.org/Graphics/SVG/1.1/DTD/svg11.dtd">
<svg version="1.1" xmlns="http://www.w3.org/2000/svg" xmlns:xlink="http://www.w3.org/1999/xlink" x="0px" y="0px" width="381px"
	 height="86px" viewBox="0 0 381 86" enable-background="new 0 0 381 86" xml:space="preserve">
<g id="Layer_1" display="none">
	<g display="inline">
		<g>
			<path fill="#FFFFFF" d="M161.946,51.298l-2.795,11.254c-0.241,0.977-0.452,2.044-0.632,3.202c-0.181,1.159-0.27,2.257-0.27,3.293
				c0,0.61,0.029,1.068,0.091,1.373h-19.343c0.668-1.215,1.246-2.459,1.733-3.735c0.486-1.274,0.912-2.642,1.277-4.099
				l10.675-42.635c0.607-2.489,0.913-5.1,0.913-7.834h19.343c-0.791,1.335-1.414,2.607-1.87,3.819c-0.457,1.213-0.867,2.546-1.232,4
				l-5.018,20.006l28.102-22.716c1.46-1.135,2.493-2.062,3.103-2.778c0.607-0.717,1.033-1.494,1.277-2.331h14.599
				c-2.182,1.21-4.136,2.375-5.862,3.494c-1.727,1.119-3.257,2.252-4.588,3.402l-13.085,11.281l8.755,31.645
				c0.607,2.128,1.171,3.755,1.686,4.88c0.517,1.125,1.262,2.325,2.235,3.601h-20.726l-7.031-28.638L161.946,51.298z"/>
			<path fill="#FFFFFF" d="M220.931,52.902l-1.916,7.664c-0.183,0.67-0.273,1.186-0.273,1.551c0,1.035,0.729,1.551,2.189,1.551
				h27.646c1.459,0,3.193-0.182,5.2-0.547l-3.102,7.299h-39.233c-5.656,0-8.485-2.341-8.485-7.025c0-1.216,0.183-2.706,0.548-4.471
				l5.019-19.891c1.824-7.664,6.355-11.496,13.595-11.496h29.744c5.657,0,8.485,2.342,8.485,7.025c0,1.217-0.183,2.707-0.548,4.471
				l-3.467,13.869H220.931z M242.099,46.15l2.189-8.759c0.183-0.668,0.274-1.186,0.274-1.551c0-1.034-0.73-1.551-2.19-1.551h-14.051
				c-1.886,0-3.072,1.035-3.559,3.102l-2.189,8.759H242.099z"/>
			<path fill="#FFFFFF" d="M282.152,27.537l-0.73,4.197c1.034-1.631,1.992-2.739,2.874-3.322c0.882-0.583,1.992-0.875,3.331-0.875
				h19.525c5.656,0,8.485,2.342,8.485,7.025c0,1.217-0.183,2.707-0.548,4.471l-5.475,21.715c-0.547,2.13-0.928,4-1.141,5.611
				c-0.214,1.612-0.319,2.965-0.319,4.06h-17.7c0.425-0.79,0.958-2.128,1.597-4.015c0.639-1.885,1.2-3.771,1.688-5.657l5.84-23.358
				c0.183-0.668,0.273-1.186,0.273-1.551c0-1.034-0.729-1.551-2.189-1.551h-13.504c-1.886,0-3.072,1.035-3.559,3.102l-5.839,23.358
				c-0.548,2.13-0.929,4-1.141,5.611c-0.214,1.612-0.319,2.965-0.319,4.06h-17.701c0.426-0.79,0.959-2.128,1.598-4.015
				c0.639-1.885,1.2-3.771,1.688-5.657l5.931-23.54c0.548-2.128,0.927-3.999,1.141-5.611c0.212-1.611,0.319-2.965,0.319-4.06
				H282.152z"/>
			<path fill="#FFFFFF" d="M322.57,70.42c-5.656,0-8.485-2.341-8.485-7.025c0-1.216,0.183-2.706,0.548-4.471l5.019-19.891
				c1.824-7.664,6.355-11.496,13.595-11.496h29.744c5.657,0,8.485,2.342,8.485,7.025c0,1.217-0.183,2.707-0.548,4.471l-5.017,19.891
				c-1.825,7.664-6.358,11.496-13.595,11.496H322.57z M346.11,63.668c1.885,0,3.071-1.033,3.559-3.102l5.748-23.175
				c0.183-0.668,0.274-1.186,0.274-1.551c0-1.034-0.73-1.551-2.19-1.551H339.45c-1.886,0-3.072,1.035-3.559,3.102l-5.748,23.175
				c-0.183,0.67-0.273,1.186-0.273,1.551c0,1.035,0.729,1.551,2.19,1.551H346.11z"/>
		</g>
		<g>
			<radialGradient id="SVGID_1_" cx="38.7011" cy="-12.9987" r="140.0858" gradientUnits="userSpaceOnUse">
				<stop  offset="0" style="stop-color:#EB223E"/>
				<stop  offset="0.2264" style="stop-color:#E8223D"/>
				<stop  offset="0.4197" style="stop-color:#DD213A"/>
				<stop  offset="0.6008" style="stop-color:#CB2135"/>
				<stop  offset="0.7745" style="stop-color:#B3202E"/>
				<stop  offset="0.9415" style="stop-color:#931F25"/>
				<stop  offset="1" style="stop-color:#861E21"/>
			</radialGradient>
			<path fill="url(#SVGID_1_)" d="M43.883,77.081l-2.099-6.661H21.437c-6.204,0-9.307-2.521-9.307-7.562
				c0-1.274,0.183-2.702,0.548-4.281l8.668-34.617c0.972-4.007,2.705-6.983,5.2-8.927c2.493-1.943,5.657-2.915,9.489-2.915h34.489
				c6.143,0,9.215,2.521,9.215,7.562c0,1.276-0.183,2.703-0.548,4.281l-8.667,34.617c-1.948,7.895-6.813,11.843-14.599,11.843H50.36
				l2.099,6.661H43.883z M45.251,54.544l2.646,8.394h1.095c2.25,0,3.649-1.153,4.197-3.46l9.124-36.419
				c0.183-0.668,0.273-1.215,0.273-1.64c0-1.213-0.912-1.82-2.737-1.82H42.879c-2.189,0-3.559,1.153-4.105,3.46l-9.124,36.419
				c-0.183,0.669-0.274,1.215-0.274,1.64c0,1.215,0.882,1.82,2.646,1.82h7.299l-2.646-8.394H45.251z"/>
			<radialGradient id="SVGID_2_" cx="38.701" cy="-12.9987" r="140.0865" gradientUnits="userSpaceOnUse">
				<stop  offset="0" style="stop-color:#EB223E"/>
				<stop  offset="0.2264" style="stop-color:#E8223D"/>
				<stop  offset="0.4197" style="stop-color:#DD213A"/>
				<stop  offset="0.6008" style="stop-color:#CB2135"/>
				<stop  offset="0.7745" style="stop-color:#B3202E"/>
				<stop  offset="0.9415" style="stop-color:#931F25"/>
				<stop  offset="1" style="stop-color:#861E21"/>
			</radialGradient>
			<path fill="url(#SVGID_2_)" d="M107.019,77.081l-2.099-6.661H84.574c-6.204,0-9.307-2.521-9.307-7.562
				c0-1.274,0.183-2.702,0.548-4.281l8.668-34.617c0.972-4.007,2.705-6.983,5.2-8.927c2.493-1.943,5.657-2.915,9.489-2.915h34.489
				c6.143,0,9.215,2.521,9.215,7.562c0,1.276-0.183,2.703-0.548,4.281l-8.667,34.617c-1.948,7.895-6.813,11.843-14.599,11.843
				h-5.566l2.099,6.661H107.019z M108.388,54.544l2.646,8.394h1.095c2.25,0,3.649-1.153,4.197-3.46l9.124-36.419
				c0.183-0.668,0.273-1.215,0.273-1.64c0-1.213-0.912-1.82-2.737-1.82h-16.971c-2.189,0-3.559,1.153-4.105,3.46l-9.124,36.419
				c-0.183,0.669-0.274,1.215-0.274,1.64c0,1.215,0.882,1.82,2.646,1.82h7.299l-2.646-8.394H108.388z"/>
		</g>
	</g>
</g>
<g id="圖層_2">
	<g>
		<g>
			<path fill="#FFFFFF" d="M190.94,51.099l-1.119,4.9h28.741l-1.12,4.899h-28.741l-2.09,9.144h28.741l-1.269,5.553h-75.122
				l1.269-5.553h29.069l2.091-9.144h-29.068l1.12-4.899h29.068l1.119-4.9H190.94z M209.325,13.539H225l-0.746,3.265h3.268
				l-1.418,6.206h-3.268l-4.33,18.943h3.266l-1.418,6.208h-5.226l4.105,4.897h-16.331l-4.105-4.897h-32.009l-6.345,4.897h-16.331
				l6.345-4.897h-5.226l1.418-6.208h2.939l4.331-18.943h-2.939l1.418-6.206h2.939l0.747-3.265h15.677l-0.746,3.265h37.561
				L209.325,13.539z M202.829,41.953l0.746-3.265h-37.56l-0.747,3.265H202.829z M204.695,33.788l0.674-2.938h-37.561l-0.674,2.938
				H204.695z M206.489,25.95l0.672-2.941h-37.562l-0.672,2.941H206.489z"/>
			<path fill="#FFFFFF" d="M224.276,70.042l9.331-40.824h-2.939l1.418-6.208h16.984l-10.154,44.419
				c-0.936,2.181-0.371,3.054,1.689,2.613h0.653l-1.269,5.553h-11.434C224.589,75.81,223.16,73.962,224.276,70.042z M251.235,13.539
				l-1.492,6.532h-16.984l1.494-6.532H251.235z M272.241,25.95l-0.924,2.612h34.622l-1.493,6.532h-34.949l-13.176,40.5h-14.373
				l13.179-40.5h-3.92l1.493-6.532h4.572l0.598-2.612H272.241z M304.473,13.539l-0.746,3.265h4.899l-1.419,6.206h-4.899
				l-0.373,1.635h-14.044l0.373-1.635h-15.352l-0.374,1.635h-14.044l0.374-1.635h-4.899l1.418-6.206h4.899l0.747-3.265h14.043
				l-0.746,3.265h15.352l0.747-3.265H304.473z M260.239,75.595l8.438-36.906h34.947l-7.166,31.354
				c-0.514,4.141-3.329,5.987-8.455,5.553H260.239z M280.321,44.894l-5.748,25.149h5.553c0.215,0,0.436,0,0.653,0
				c2.024,0.654,3.147-0.433,3.36-3.266l5.002-21.883H280.321z"/>
		</g>
		<g>
			<radialGradient id="SVGID_3_" cx="38.7012" cy="-12.9983" r="140.085" gradientUnits="userSpaceOnUse">
				<stop  offset="0" style="stop-color:#EB223E"/>
				<stop  offset="0.2264" style="stop-color:#E8223D"/>
				<stop  offset="0.4197" style="stop-color:#DD213A"/>
				<stop  offset="0.6008" style="stop-color:#CB2135"/>
				<stop  offset="0.7745" style="stop-color:#B3202E"/>
				<stop  offset="0.9415" style="stop-color:#931F25"/>
				<stop  offset="1" style="stop-color:#861E21"/>
			</radialGradient>
			<path fill="url(#SVGID_3_)" d="M43.883,77.08l-2.099-6.66H21.437c-6.204,0-9.307-2.521-9.307-7.562
				c0-1.273,0.183-2.701,0.548-4.281l8.668-34.617c0.972-4.007,2.705-6.983,5.2-8.927c2.493-1.943,5.657-2.915,9.489-2.915h34.489
				c6.143,0,9.215,2.519,9.215,7.561c0,1.276-0.183,2.703-0.548,4.281l-8.667,34.617c-1.948,7.896-6.813,11.844-14.599,11.844H50.36
				l2.099,6.66H43.883z M45.251,54.543l2.646,8.395h1.095c2.25,0,3.649-1.153,4.197-3.46l9.124-36.419
				c0.183-0.668,0.273-1.215,0.273-1.64c0-1.214-0.912-1.82-2.737-1.82H42.879c-2.189,0-3.559,1.153-4.105,3.46l-9.124,36.419
				c-0.183,0.669-0.274,1.215-0.274,1.64c0,1.215,0.882,1.82,2.646,1.82h7.299l-2.646-8.395H45.251z"/>
			<radialGradient id="SVGID_4_" cx="38.701" cy="-12.9983" r="140.086" gradientUnits="userSpaceOnUse">
				<stop  offset="0" style="stop-color:#EB223E"/>
				<stop  offset="0.2264" style="stop-color:#E8223D"/>
				<stop  offset="0.4197" style="stop-color:#DD213A"/>
				<stop  offset="0.6008" style="stop-color:#CB2135"/>
				<stop  offset="0.7745" style="stop-color:#B3202E"/>
				<stop  offset="0.9415" style="stop-color:#931F25"/>
				<stop  offset="1" style="stop-color:#861E21"/>
			</radialGradient>
			<path fill="url(#SVGID_4_)" d="M107.019,77.08l-2.099-6.66H84.574c-6.204,0-9.307-2.521-9.307-7.562
				c0-1.273,0.183-2.701,0.548-4.281l8.668-34.617c0.972-4.007,2.705-6.983,5.2-8.927c2.493-1.943,5.657-2.915,9.489-2.915h34.489
				c6.143,0,9.215,2.519,9.215,7.561c0,1.276-0.183,2.703-0.548,4.281l-8.667,34.617c-1.948,7.896-6.814,11.844-14.599,11.844
				h-5.566l2.099,6.66H107.019z M108.388,54.543l2.646,8.395h1.095c2.25,0,3.649-1.153,4.197-3.46l9.124-36.419
				c0.183-0.668,0.273-1.215,0.273-1.64c0-1.214-0.912-1.82-2.737-1.82h-16.971c-2.189,0-3.559,1.153-4.105,3.46l-9.124,36.419
				c-0.183,0.669-0.274,1.215-0.274,1.64c0,1.215,0.882,1.82,2.646,1.82h7.299l-2.646-8.395H108.388z"/>
		</g>
	</g>
</g>
</svg>
