<?xml version="1.0" encoding="utf-8"?>
<!-- Generator: Adobe Illustrator 17.0.0, SVG Export Plug-In . SVG Version: 6.00 Build 0)  -->
<!DOCTYPE svg PUBLIC "-//W3C//DTD SVG 1.1//EN" "http://www.w3.org/Graphics/SVG/1.1/DTD/svg11.dtd">
<svg version="1.1" id="Layer_1" xmlns="http://www.w3.org/2000/svg" xmlns:xlink="http://www.w3.org/1999/xlink" x="0px" y="0px"
	 width="381px" height="86px" viewBox="0 0 381 86" enable-background="new 0 0 381 86" xml:space="preserve">
<g>
	<g>
		<path fill="#FFFFFF" d="M161.946,51.298l-2.795,11.254c-0.241,0.977-0.452,2.044-0.632,3.202c-0.181,1.159-0.27,2.257-0.27,3.293
			c0,0.61,0.029,1.068,0.091,1.373h-19.343c0.668-1.215,1.246-2.459,1.733-3.735c0.486-1.274,0.912-2.642,1.277-4.099l10.675-42.635
			c0.607-2.489,0.913-5.1,0.913-7.834h19.343c-0.791,1.335-1.414,2.607-1.87,3.819c-0.457,1.213-0.867,2.546-1.232,4.001
			l-5.018,20.006l28.102-22.716c1.46-1.135,2.493-2.062,3.103-2.778c0.607-0.717,1.033-1.494,1.277-2.331h14.599
			c-2.182,1.21-4.136,2.375-5.862,3.494c-1.727,1.119-3.257,2.252-4.588,3.402l-13.085,11.281l8.755,31.645
			c0.607,2.128,1.171,3.755,1.686,4.88c0.517,1.125,1.262,2.325,2.235,3.601h-20.726l-7.031-28.638L161.946,51.298z"/>
		<path fill="#FFFFFF" d="M220.931,52.902l-1.916,7.664c-0.183,0.67-0.273,1.186-0.273,1.551c0,1.035,0.729,1.551,2.189,1.551
			h27.646c1.459,0,3.193-0.182,5.2-0.547l-3.102,7.299h-39.233c-5.656,0-8.485-2.341-8.485-7.025c0-1.216,0.183-2.706,0.548-4.471
			l5.019-19.891c1.824-7.664,6.355-11.496,13.595-11.496h29.744c5.657,0,8.485,2.342,8.485,7.025c0,1.217-0.183,2.707-0.548,4.471
			l-3.467,13.869H220.931z M242.099,46.15l2.189-8.759c0.183-0.668,0.274-1.186,0.274-1.551c0-1.034-0.73-1.551-2.19-1.551h-14.051
			c-1.886,0-3.072,1.035-3.559,3.102l-2.189,8.759H242.099z"/>
		<path fill="#FFFFFF" d="M282.152,27.537l-0.73,4.197c1.034-1.631,1.992-2.739,2.874-3.322c0.882-0.583,1.992-0.875,3.331-0.875
			h19.525c5.656,0,8.485,2.342,8.485,7.025c0,1.217-0.183,2.707-0.548,4.471l-5.475,21.715c-0.547,2.13-0.928,4-1.141,5.611
			c-0.214,1.612-0.319,2.965-0.319,4.06h-17.7c0.425-0.79,0.958-2.128,1.597-4.015c0.639-1.885,1.2-3.77,1.688-5.657l5.84-23.358
			c0.183-0.668,0.273-1.186,0.273-1.551c0-1.034-0.729-1.551-2.189-1.551h-13.504c-1.886,0-3.072,1.035-3.559,3.102l-5.839,23.358
			c-0.548,2.13-0.929,4-1.141,5.611c-0.214,1.612-0.319,2.965-0.319,4.06h-17.701c0.426-0.79,0.959-2.128,1.598-4.015
			c0.639-1.885,1.2-3.77,1.688-5.657l5.931-23.54c0.548-2.128,0.927-3.999,1.141-5.611c0.212-1.611,0.319-2.965,0.319-4.06H282.152z
			"/>
		<path fill="#FFFFFF" d="M322.57,70.42c-5.656,0-8.485-2.341-8.485-7.025c0-1.216,0.183-2.706,0.548-4.471l5.019-19.891
			c1.824-7.664,6.355-11.496,13.595-11.496h29.744c5.657,0,8.485,2.342,8.485,7.025c0,1.217-0.183,2.707-0.548,4.471l-5.017,19.891
			c-1.825,7.664-6.358,11.496-13.595,11.496H322.57z M346.11,63.668c1.885,0,3.071-1.033,3.559-3.102l5.748-23.175
			c0.183-0.668,0.274-1.186,0.274-1.551c0-1.034-0.73-1.551-2.19-1.551H339.45c-1.886,0-3.072,1.035-3.559,3.102l-5.748,23.175
			c-0.183,0.67-0.273,1.186-0.273,1.551c0,1.035,0.729,1.551,2.19,1.551H346.11z"/>
	</g>
	<g>
		<radialGradient id="SVGID_1_" cx="38.7011" cy="-12.9988" r="140.0858" gradientUnits="userSpaceOnUse">
			<stop  offset="0" style="stop-color:#EB223E"/>
			<stop  offset="0.2264" style="stop-color:#E8223D"/>
			<stop  offset="0.4197" style="stop-color:#DD213A"/>
			<stop  offset="0.6008" style="stop-color:#CB2135"/>
			<stop  offset="0.7745" style="stop-color:#B3202E"/>
			<stop  offset="0.9415" style="stop-color:#931F25"/>
			<stop  offset="1" style="stop-color:#861E21"/>
		</radialGradient>
		<path fill="url(#SVGID_1_)" d="M43.883,77.081l-2.099-6.661H21.437c-6.204,0-9.307-2.521-9.307-7.562
			c0-1.274,0.183-2.702,0.548-4.281l8.668-34.617c0.972-4.007,2.705-6.983,5.2-8.927c2.493-1.943,5.657-2.915,9.489-2.915h34.489
			c6.143,0,9.215,2.521,9.215,7.561c0,1.276-0.183,2.703-0.548,4.281l-8.667,34.617c-1.948,7.895-6.813,11.843-14.599,11.843H50.36
			l2.099,6.661H43.883z M45.251,54.544l2.646,8.394h1.095c2.25,0,3.649-1.153,4.197-3.46l9.124-36.419
			c0.183-0.667,0.273-1.215,0.273-1.64c0-1.213-0.912-1.82-2.737-1.82H42.879c-2.189,0-3.559,1.153-4.105,3.46l-9.124,36.419
			c-0.183,0.669-0.274,1.215-0.274,1.64c0,1.215,0.882,1.82,2.646,1.82h7.299l-2.646-8.394H45.251z"/>
		<radialGradient id="SVGID_2_" cx="38.701" cy="-12.9988" r="140.0865" gradientUnits="userSpaceOnUse">
			<stop  offset="0" style="stop-color:#EB223E"/>
			<stop  offset="0.2264" style="stop-color:#E8223D"/>
			<stop  offset="0.4197" style="stop-color:#DD213A"/>
			<stop  offset="0.6008" style="stop-color:#CB2135"/>
			<stop  offset="0.7745" style="stop-color:#B3202E"/>
			<stop  offset="0.9415" style="stop-color:#931F25"/>
			<stop  offset="1" style="stop-color:#861E21"/>
		</radialGradient>
		<path fill="url(#SVGID_2_)" d="M107.019,77.081l-2.099-6.661H84.574c-6.204,0-9.307-2.521-9.307-7.562
			c0-1.274,0.183-2.702,0.548-4.281l8.668-34.617c0.972-4.007,2.705-6.983,5.2-8.927c2.493-1.943,5.657-2.915,9.489-2.915h34.489
			c6.143,0,9.215,2.521,9.215,7.561c0,1.276-0.183,2.703-0.548,4.281l-8.667,34.617c-1.948,7.895-6.813,11.843-14.599,11.843h-5.566
			l2.099,6.661H107.019z M108.388,54.544l2.646,8.394h1.095c2.25,0,3.649-1.153,4.197-3.46l9.124-36.419
			c0.183-0.667,0.273-1.215,0.273-1.64c0-1.213-0.912-1.82-2.737-1.82h-16.971c-2.189,0-3.559,1.153-4.105,3.46l-9.124,36.419
			c-0.183,0.669-0.274,1.215-0.274,1.64c0,1.215,0.882,1.82,2.646,1.82h7.299l-2.646-8.394H108.388z"/>
	</g>
</g>
</svg>
